<mxfile host="65bd71144e">
    <diagram id="P9vlfC97SYB1Ld13bC1R" name="Page-1">
        <mxGraphModel dx="749" dy="546" grid="1" gridSize="10" guides="1" tooltips="1" connect="1" arrows="1" fold="1" page="1" pageScale="1" pageWidth="827" pageHeight="1169" math="0" shadow="0">
            <root>
                <mxCell id="0"/>
                <mxCell id="1" parent="0"/>
                <mxCell id="2" value="SIRVA" style="text;html=1;align=center;verticalAlign=middle;resizable=0;points=[];autosize=1;strokeColor=none;fillColor=none;fontStyle=1;fontFamily=Tahoma;fontSize=74;" vertex="1" parent="1">
                    <mxGeometry x="347.12" y="278" width="260" height="100" as="geometry"/>
                </mxCell>
                <mxCell id="3" value="" style="shape=image;verticalLabelPosition=bottom;labelBackgroundColor=default;verticalAlign=top;aspect=fixed;imageAspect=0;image=data:image/svg+xml,PHN2ZyB4bWxucz0iaHR0cDovL3d3dy53My5vcmcvMjAwMC9zdmciIHByZXNlcnZlQXNwZWN0UmF0aW89InhNaWRZTWlkIG1lZXQiIHZpZXdCb3g9IjAuNDE0MDYyNSAwLjE3MDE5OTM0OTUyMjU5MDY0IDEyNzkuMzI5ODMzOTg0Mzc1IDEwMzkuODI5ODMzOTg0Mzc1IiBoZWlnaHQ9IjEwMzkuODI5ODMzOTg0Mzc1IiB3aWR0aD0iMTI3OS4zMjk4MzM5ODQzNzUiIHZlcnNpb249IjEuMCI+CjxnIHN0cm9rZT0ibm9uZSIgZmlsbD0iIzAwMDAwMCIgdHJhbnNmb3JtPSJ0cmFuc2xhdGUoMC4wMDAwMDAsMTA0MC4wMDAwMDApIHNjYWxlKDAuMTAwMDAwLC0wLjEwMDAwMCkiPgo8cGF0aCBkPSJNMTA0MjAgMTAzNzAgYy0xMjUgLTQxIC0xNzUgLTczIC0yNzYgLTE3NCAtMTQ1IC0xNDUgLTI4MSAtMzM5IC0zODcmIzEwOy01NTEgLTc3IC0xNTQgLTkwIC0yMDMgLTkwIC0zNDAgMSAtMjI1IDc3IC00MDYgMTgxIC00MzUgNTQgLTE1IDE4MiAtMTIgMjY5JiMxMDs2IDE2NCAzNCAyNzkgOTAgNDExIDIwMCA4MCA2NyAxMDcgNzcgMTE3IDQ1IDggLTI2IC02IC01NyAtNjAgLTEyOSAtODEgLTEwOCYjMTA7LTI3MyAtMjU3IC0zNjQgLTI4MiAtNTMgLTE1IC0yNDQgLTEyIC0zNDEgNSAtMTAxIDE4IC0yMTUgNzAgLTI1OCAxMTkgLTE2IDE5JiMxMDstMzggNTUgLTQ4IDgxIC0xNSA0MSAtMTYgNTYgLTYgMTEzIDYgMzcgOSA2OCA4IDcwIC03IDYgLTE2MiAtMTE3IC0yNTEgLTE5OSYjMTA7LTQ5IC00NSAtMjExIC0xOTcgLTM2MCAtMzM4IC0zNTcgLTMzOCAtMzk2IC0zNzUgLTQ5MCAtNDU3IC0zMTkgLTI4MSAtNjE0JiMxMDstNDkwIC04NTAgLTYwNCAtMTYxIC03OCAtMjA1IC05MSAtNTI1IC0xNTUgLTM0NiAtNjkgLTUxMCAtODEgLTEwNTAgLTcxIC02MjImIzEwOzEwIC0xMDE4IDQyIC0xMzQwIDEwNiAtODAgMTYgLTIzMCA0NiAtMzM1IDY1IC0yNDYgNDcgLTM2OSA3NCAtNTk1IDEzNSAtMjc2JiMxMDs3NCAtMzk2IDgzIC01ODAgNDUgLTE2MSAtMzQgLTI5NiAtOTUgLTY2MCAtMjk5IC0xMjQgLTcwIC0yNTAgLTEzNiAtMjc5IC0xNDcmIzEwOy0zMCAtMTEgLTc2IC0zNiAtMTAyIC01NSAtNTggLTQyIC0xMTkgLTY5IC0yOTAgLTEyOSAtMTQ5IC01MyAtMjI1IC04OCAtMzE0JiMxMDstMTQ4IC0xMjcgLTg2IC0yNDMgLTIyMCAtMjcxIC0zMTUgLTE5IC02MSAtMzIgLTM2NCAtNDQgLTk5MiAtMTMgLTYzNyAtMjcmIzEwOy04MjAgLTg1IC0xMTA1IC0zMiAtMTU0IC03MCAtMjcwIC0xNTIgLTQ1OCAtMTEwIC0yNTUgLTExOSAtMjcxIC0zNTEgLTU4MCYjMTA7LTIyNiAtMzAyIC0yNTggLTM2OCAtMjkzIC02MDUgLTM0IC0yMzUgLTU5IC0zMjAgLTE0NCAtNDg0IC00MSAtODEgLTkwIC0xODImIzEwOy0xMDkgLTIyNSAtMTggLTQzIC01MSAtMTEzIC03MSAtMTU2IC0zNSAtNzEgLTM3IC03OSAtMjIgLTk0IDI0IC0yNCA5MiAtMTgmIzEwOzE5MyAxOCAxNjMgNTcgMjI2IDk4IDI1NiAxNjYgMTYgMzYgMjEgODEgMjggMjUyIDExIDI2MCAyNiAzNTAgMTAwIDYyOSAxMTAmIzEwOzQwNiAxMjAgNDI0IDMxMCA1MzMgMjQ1IDE0MCAzODAgNDAxIDQ3NCA5MjAgMzQgMTg0IDUwIDMwMyA5MSA2NzQgNjggNjA0IDEzMSYjMTA7OTI1IDIwMCAxMDExIDQ1IDU1IDY4IDIxIDE4NCAtMjcxIDQzIC0xMTAgMTAwIC0yNjMgMTI2IC0zNDAgMTgyIC01NDkgMjg0JiMxMDstMTUwNyAxODUgLTE3MzIgLTIyIC01MSAtOTkgLTExMCAtMzM1IC0yNTggLTIzMSAtMTQ1IC0zMTcgLTIwOCAtMzg5IC0yODYmIzEwOy03MiAtNzcgLTEwNyAtMTQ1IC0xMzAgLTI0NyAtMTcgLTc4IC03MiAtNDA3IC0xMzEgLTc5MiAtNTkgLTM4MSAtOTMgLTUyMiYjMTA7LTE1NyAtNjQzIC0xNyAtMzEgLTc2IC0xMDYgLTEzMSAtMTY1IC0xNTcgLTE3MCAtMTk2IC0yMjggLTI0MiAtMzY0IC0xMyAtMzkmIzEwOy0zNSAtODMgLTQ4IC05NyAtMzkgLTQyIC01MCAtNzAgLTQzIC0xMTMgOSAtNTMgMjggLTg4IDgxIC0xNDggNzYgLTg1IDc5IC05NiYjMTA7ODUgLTI3NiAzIC0xMTUgOSAtMTY2IDE5IC0xNzcgMjggLTM0IDg4IC00MCAzODEgLTM5IDI3MiAxIDQyNCAxMiA0NDQgMzIgMTYmIzEwOzE2IC01NSAxMTAgLTI3MSAzNTYgLTE1NCAxNzQgLTE4MyAyMjYgLTE4MyAzMjIgMCAyNTAgMzA2IDgyMCA2OTkgMTMwMiAxMDYmIzEwOzEzMSAzNDYgMzc3IDQyNiA0MzcgODEgNjIgMjA3IDEyMCA0MTAgMTg4IDQ5OSAxNjggOTY0IDQ3OSAxNDM1IDk2MSAxODMgMTg4JiMxMDszMzAgMzY4IDQ4MiA1OTIgMTU5IDIzNSAyMTMgMzAyIDI0NCAzMDIgNTEgMCAxNTQgLTExMSAxNTQgLTE2NiAwIC00MiAtNzAmIzEwOy0xMjYgLTMyOSAtMzkyIC0zMDkgLTMxOCAtNDI1IC00NDggLTU3NCAtNjQyIC02MSAtODAgLTE1NCAtMTk2IC0yMDYgLTI1OCYjMTA7LTI5OCAtMzUyIC0zNTIgLTQ2MyAtMjc3IC01NzEgNjEgLTg3IDE5NCAtMTcxIDYxMiAtMzgyIDM5MiAtMTk5IDQ5NyAtMjY0JiMxMDs2MTEgLTM4MSAxMjMgLTEyNiAxNjEgLTIzMCAxNzMgLTQ3NiA5IC0xODAgMjAgLTIyNCA1NSAtMjMwIDU0IC0xMCA5MiAtNzcmIzEwOzEyMSAtMjEwIDE1IC03MiAyMiAtODcgNDkgLTEwOCA4MCAtNjAgMzk4IC0xNzggNTE3IC0xOTAgNTkgLTYgNjYgLTQgOTUgMjAmIzEwOzY4IDU3IDk2IDE3MCA2OSAyNzcgLTQ2IDE3NyAtMjA1IDM1OSAtNjIxIDcwOCAtNTIyIDQzOCAtNzM1IDY2NSAtODA5IDg2MiYjMTA7LTEyMyAzMjkgMjQgNzEwIDI5MSA3NTQgOTQgMTUgMjE4IC00MCAzODggLTE3NCAxMTEgLTg4IDE3NSAtMTE0IDI2MiAtMTA5IDU1JiMxMDszIDcwIDkgMTIwIDQ2IDE2MCAxMTggNDUwIDIyMyA5OTggMzYwIDYwOSAxNTMgNzk5IDE4NSA4NzkgMTQ3IDUyIC0yNSAxNDMmIzEwOy0xMTAgMTgxIC0xNzAgMTggLTI3IDQ1IC04NCA2MCAtMTI1IDM1IC05MSA4NiAtMTQ2IDIyNCAtMjQwIDMzNyAtMjMwIDg0MCYjMTA7LTgwMiAxMDAyIC0xMTM3IDk1IC0xOTcgMTE5IC0zMDQgMTM5IC02MTMgMTUgLTIyNCAyOCAtMzU1IDQxIC00MDQgNyAtMjUgMjgmIzEwOy01NiA1OCAtODUgNTUgLTUzIDg1IC0xMjIgOTYgLTIyMSAxMyAtMTIxIDUzIC0xNzcgMTg5IC0yNjcgODMgLTU1IDIyOCAtMTI0JiMxMDszMDggLTE0NyA4MyAtMjQgMjQ4IC01NiAyODggLTU2IDU3IDAgMjY4IDQ3IDMwMyA2OCA0OCAyOCA0MyA3NiAtMjEgMjA1IC0xMzMmIzEwOzI2NyAtMjg2IDQ0MyAtNDk4IDU3MiAtMjI4IDEzOSAtMzA3IDIwNCAtMzkyIDMyOSAtMTMyIDE5MSAtMjIzIDQzOCAtMzAzIDgyNiYjMTA7LTgxIDM5MSAtMjAwIDgyOSAtMjkzIDEwNzkgLTcxIDE4OCAtOTEgMjk3IC05MSA0ODYgMCAxNTEgMSAxNjMgMjUgMjEwIDIwIDQwJiMxMDszMCA1MCA1MCA1MCA0NSAwIDU1IC00MSA1MCAtMjAwIC03IC0yNDAgLTUgLTI2NiAxOSAtMzEzIDMxIC02MSA5MCAtMTIyIDEzNiYjMTA7LTE0MyA4NCAtMzYgMzM5IC0zMiA0MjIgOCA0NiAyMSAxNTIgMTIwIDIwOCAxOTMgNTUgNzIgODMgMTI4IDk1IDE5MiA2IDI4IDIxJiMxMDs2NiAzNSA4NCAzNSA0NiA0NSAxMTEgNDUgMjk1IGwwIDE1OSAtMTAwIDAgYy0xMDcgMCAtMTk3IDIyIC0yMzIgNTggLTM3IDM3JiMxMDstNjMgMTk1IC0xMDMgNjI3IC00NCA0ODAgLTY3IDYwMCAtMTcwIDkwNSAtNjcgMTk3IC05NCAyNTMgLTE0MyAyOTMgLTc4IDY0JiMxMDstMjI1IDIxNiAtMzEzIDMyNCAtMTM2IDE2NyAtMTM0IDE3MyAzMCA4NyAyNTUgLTEzNCA0NzUgLTMxOSA2MDEgLTUwNCAxMTAmIzEwOy0xNjIgMTIyIC0yMzAgMTQwIC03ODUgMTYgLTQ2NSAzNiAtNjM0IDg4IC03MTIgMjYgLTQxIDcwIC01NyAxNTIgLTU3IDEwNSAtMSYjMTA7MTQ2IDIyIDI2MiAxNDIgMjM5IDI1MCAzMzEgNDY4IDQ1OCAxMDc3IDU0IDI2NCA4OSAzOTUgMTQ2IDU0NiAxNDcgMzkxIDM3NCYjMTA7NzQ5IDY0NiAxMDIwIDExNSAxMTUgMjI4IDIwMiAzNzUgMjg4IDEwMyA2MSAxNjMgMTA2IDE2MyAxMjMgMCAzOSAtMTMzIDI5JiMxMDstMzQ1IC0yNyAtMTgyIC00OCAtMzI0IC02NyAtNDk1IC02NiAtMjA5IDAgLTI4NSAyNyAtNDA4IDE0NSAtNjAgNTcgLTc1IDg3JiMxMDstNTcgMTEzIDMzIDQ3IDkxIDM1IDE1MyAtMzEgNzQgLTc5IDE4MiAtMTE2IDMzNyAtMTE1IDEwNSAwIDE3OCAxMyAzNjggNjMmIzEwOzE4MyA0OCAyNDMgNTIgNDIyIDMxIDIwOCAtMjQgMzMxIC0xNyA1MDUgMjkgMTg3IDQ5IDI3MiA3OSAzMjQgMTE1IDc0IDUxIDE3NSYjMTA7MjIwIDIxNyAzNjQgMjEgNzUgMjEgNzggNSAxMzEgLTI0IDc2IC03MyAxMzYgLTE1MyAxODkgLTkxIDYwIC05MyA2MSAtMjkzJiMxMDsxNDEgLTI0NyAxMDAgLTMwNyAxMzcgLTQ2OCAyODggLTE3NyAxNjcgLTI4MiAyNDEgLTQ3NyAzMzggLTI3NSAxMzYgLTQ5MSAxOTQmIzEwOy03MDAgMTg4IC0xMTkgLTMgLTEyMSAtNCAtMjA3IC00NyAtNzcgLTM4IC05MyAtNDMgLTEzMCAtMzcgLTkxIDE1IC0xNzEgODUmIzEwOy0yMDcgMTgxIC0yNyA3MyAtMjYgMTE3IDQgMjE0IDQ3IDE0OCAxMzUgMjgzIDMwNCA0NjYgMTE4IDEyNyAxMzYgMTU5IDEwNiYjMTA7MTgyIC0yNiAxOCAtNDggMTYgLTE0NSAtMTd6IG05MjkgLTE1MDcgYzYxIC00OSAzNyAtMjEzIC0zMCAtMjEzIC0yNiAwIC0xMTImIzEwOzM1IC0xNTkgNjUgLTUzIDM0IC01MSA1NSA5IDk5IDg4IDY1IDE0MiA4MCAxODAgNDl6IG0xMDIxIC00MzYgYzAgLTcgLTExIC0yOCYjMTA7LTI1IC00NyAtMzQgLTQ2IC0zMiAtNjAgOCAtNjAgMTA3IDAgMTc4IC03MCAxMTkgLTExNyAtMjcgLTIyIC01MiAtMTUgLTYzIDE3JiMxMDstNiAxNyAtMTUgMzAgLTIwIDMwIC01IDAgLTEyIDAgLTE2IDAgLTUgMSAtMTAgLTE0IC0xMyAtMzEgLTYgLTM4IC0yOCAtNTQmIzEwOy02MiAtNDYgLTQwIDEwIC02OCAzOSAtNzcgNzggLTEzIDU1IDcgOTcgNjcgMTQ2IDUzIDQzIDgyIDU0IDgyIDMweiIvPgo8cGF0aCBkPSJNMTE0MTYgOTgzNiBjLTU1IC0xNTYgLTg1IC0yMDggLTE2OCAtMjkyIC00NSAtNDYgLTU5IC02NyAtNTYgLTg1IDUmIzEwOy0zNSA1MSAtNTMgMTMzIC01MyAxMjAgMSAxNzMgMzAgMTk0IDEwOSAxNCA1MCAxNCAyMjUgMSAyOTYgLTE1IDc4IC0zOSAxNTkmIzEwOy00OCAxNTkgLTUgMCAtMzAgLTYwIC01NiAtMTM0eiIvPgo8L2c+Cjwvc3ZnPg==;fontColor=#F0F0F0;" vertex="1" parent="1">
                    <mxGeometry x="404.59" y="180" width="145.06" height="118" as="geometry"/>
                </mxCell>
                <mxCell id="4" value="&lt;span style=&quot;color: rgba(0, 0, 0, 0); font-family: monospace; font-size: 0px; font-weight: 400; text-align: start;&quot;&gt;%3CmxGraphModel%3E%3Croot%3E%3CmxCell%20id%3D%220%22%2F%3E%3CmxCell%20id%3D%221%22%20parent%3D%220%22%2F%3E%3CmxCell%20id%3D%222%22%20value%3D%22SIRVA%22%20style%3D%22text%3Bhtml%3D1%3Balign%3Dcenter%3BverticalAlign%3Dmiddle%3Bresizable%3D0%3Bpoints%3D%5B%5D%3Bautosize%3D1%3BstrokeColor%3Dnone%3BfillColor%3Dnone%3BfontStyle%3D1%3BfontFamily%3DTahoma%3BfontSize%3D34%3B%22%20vertex%3D%221%22%20parent%3D%221%22%3E%3CmxGeometry%20x%3D%22390%22%20y%3D%22230%22%20width%3D%22130%22%20height%3D%2250%22%20as%3D%22geometry%22%2F%3E%3C%2FmxCell%3E%3C%2Froot%3E%3C%2FmxGraphModel%3E&lt;/span&gt;" style="text;html=1;align=center;verticalAlign=middle;resizable=0;points=[];autosize=1;strokeColor=none;fillColor=none;fontStyle=1;fontFamily=Tahoma;fontSize=34;" vertex="1" parent="1">
                    <mxGeometry x="445" y="290" width="20" height="50" as="geometry"/>
                </mxCell>
                <mxCell id="5" value="sistema de inventario reproductor bovino alternativo" style="text;html=1;align=center;verticalAlign=middle;resizable=0;points=[];autosize=1;strokeColor=none;fillColor=none;fontStyle=0;fontFamily=Tahoma;fontSize=10;" vertex="1" parent="1">
                    <mxGeometry x="352.12" y="355" width="250" height="30" as="geometry"/>
                </mxCell>
            </root>
        </mxGraphModel>
    </diagram>
</mxfile>